# Blender 4.0.2
# www.blender.org
o church_01
v 2.140244 2.604909 -6.120967
v 0.172755 4.426117 -6.120738
v -2.021639 2.604909 -6.120967
v -0.054150 4.426117 -6.120738
v -0.350255 2.604909 -7.948953
v 0.030272 4.426117 -6.359547
v -1.107018 2.604909 -7.635491
v -0.008954 4.426117 -6.334554
v -1.686219 2.604909 -7.056290
v -0.038977 4.426117 -6.288372
v -1.999680 2.604909 -6.299527
v -0.055225 4.426117 -6.197541
v 0.468859 2.604909 -7.948953
v 0.088332 4.426117 -6.359547
v 1.225622 2.604909 -7.635491
v 0.127559 4.426117 -6.334554
v 1.804823 2.604909 -7.056290
v 0.157581 4.426117 -6.288372
v 2.118285 2.604909 -6.299527
v 0.173830 4.426117 -6.197541
v 2.140244 0.000000 -6.120967
v -2.021639 0.000000 -6.120967
v -0.350255 0.000000 -7.948953
v -1.107018 0.000000 -7.635491
v -1.686219 0.000000 -7.056290
v -1.999680 0.000000 -6.299527
v 0.468859 0.000000 -7.948953
v 1.225622 0.000000 -7.635491
v 1.804823 0.000000 -7.056290
v 2.118285 0.000000 -6.299527
v -3.080628 0.000000 -1.909982
v -3.080628 3.414323 -1.909982
v 3.080627 0.000000 -1.909983
v 3.080627 3.414323 -1.909983
v -3.080627 0.000000 7.468253
v -3.080627 3.414323 7.468253
v 3.080628 0.000000 7.468253
v 3.080628 3.414323 7.468253
v -3.223751 3.592232 -1.909982
v 3.223751 3.592232 -1.909982
v 3.223751 3.592232 7.468253
v -3.223750 3.592232 7.468254
v -0.000000 7.391813 -1.909982
v -2.355654 0.000000 -6.120891
v -2.355654 3.362109 -6.120891
v 2.355654 0.000000 -6.120891
v 2.355654 3.362109 -6.120891
v -2.355654 0.000000 -1.909982
v -2.355654 3.362109 -1.909982
v 2.355654 0.000000 -1.909982
v 2.355654 3.362109 -1.909982
v -2.498778 3.540018 -6.120890
v 2.498777 3.540018 -6.120890
v 2.498777 3.540018 -1.909982
v -2.498777 3.540018 -1.909982
v -0.000000 6.555613 -6.120890
v -0.000000 6.555613 -1.909983
v 3.080628 0.000000 4.330777
v 3.080628 3.414323 4.330776
v -3.080627 0.000000 4.330776
v -3.080627 3.414323 4.330777
v 3.223751 3.592232 4.330777
v -3.223751 3.592232 4.330778
v 0.000000 7.391813 4.330776
v -1.571036 5.552072 -1.909982
v 1.571035 5.552072 -1.909982
v 1.570583 5.552072 7.471942
v -1.284158 5.018203 -1.909983
v -1.284159 5.018203 -6.120890
v 1.284158 5.018203 -6.120890
v 1.284158 5.018203 -1.909983
v 0.000001 0.000000 7.468253
v 0.000001 3.414323 7.468253
v 0.000001 3.592232 7.468253
v 0.000001 5.552072 7.471942
v 0.000000 0.000000 4.330776
v -1.570582 5.552072 4.330777
v -1.570582 10.102739 4.330777
v 1.570583 5.552072 4.330777
v 1.570583 10.102739 4.330777
v -1.570582 5.552072 7.471942
v -1.570582 10.102739 7.471942
v 1.570583 10.102739 7.471942
v -1.756703 10.270567 4.144656
v 1.756704 10.270567 4.144656
v 1.756704 10.270567 7.658063
v -1.756703 10.270567 7.658063
v -0.140844 13.158621 5.760515
v 0.140845 13.158621 5.760515
v 0.140845 13.158621 6.042204
v -0.140844 13.158621 6.042204
v 0.000000 10.102739 4.330777
v 0.000001 10.102739 7.471942
v 0.000000 10.270567 4.144656
v 0.000001 10.270567 7.658063
v 0.000000 13.158621 5.760515
v 0.000000 13.158621 6.042204
vn 0.1951 -0.0000 -0.9808
vn -0.1951 -0.0000 -0.9808
vn -0.2924 0.6644 -0.6877
vn -0.5229 0.6834 -0.5094
vn -0.6572 0.7091 -0.2556
vn -0.8315 -0.0000 -0.5556
vn -0.9670 -0.0000 -0.2547
vn 0.2924 0.6644 -0.6877
vn 0.5229 0.6834 -0.5094
vn 0.6572 0.7091 -0.2556
vn 0.6796 0.7315 -0.0556
vn -0.5556 -0.0000 -0.8315
vn -0.0000 0.6575 -0.7534
vn 0.8315 -0.0000 -0.5556
vn 0.9670 -0.0000 -0.2547
vn 0.5556 -0.0000 -0.8315
vn -0.9925 -0.0000 -0.1221
vn 0.9925 -0.0000 -0.1221
vn -0.0000 1.0000 -0.0000
vn -0.6796 0.7315 -0.0556
vn -0.0000 -1.0000 -0.0000
vn 1.0000 -0.0000 -0.0000
vn -0.0000 -0.0000 1.0000
vn -1.0000 -0.0000 -0.0000
vn -0.7792 -0.6268 -0.0000
vn 0.7792 -0.6268 -0.0000
vn -0.0000 -0.0009 1.0000
vn 0.7631 0.6463 -0.0000
vn 0.7625 0.6470 -0.0000
vn 0.7605 0.6493 -0.0000
vn -0.0000 -0.0000 -1.0000
vn -0.7701 0.6380 -0.0000
vn -0.7675 0.6411 -0.0000
vn 0.7701 0.6380 -0.0000
vn 0.7675 0.6411 -0.0000
vn -0.7625 0.6470 -0.0000
vn -0.7631 0.6463 -0.0000
vn -0.7605 0.6493 -0.0000
vn -0.7644 0.6447 -0.0000
vn 0.7644 0.6448 -0.0000
vn 0.7644 0.6447 -0.0000
vn -0.0000 -0.0011 1.0000
vn -0.7644 0.6448 -0.0000
vn 0.7726 0.6349 -0.0000
vn -0.7726 0.6349 -0.0000
vn -0.0000 -0.7427 -0.6697
vn -0.0000 0.4883 0.8727
vn -0.6697 -0.7427 -0.0000
vn 0.6697 -0.7427 -0.0000
vn -0.0000 -0.7427 0.6697
vn -0.0000 0.4883 -0.8727
vn -0.8727 0.4883 -0.0000
vn 0.8727 0.4883 -0.0000
vt 0.610770 0.764246
vt 0.610770 0.654879
vt 0.645160 0.654879
vt 0.645160 0.764246
vt 0.886041 0.270517
vt 0.919567 0.262901
vt 0.921115 0.367526
vt 0.919174 0.367733
vt 0.953916 0.264363
vt 0.923388 0.367949
vt 0.986585 0.275077
vt 0.926844 0.369699
vt 0.713941 0.764246
vt 0.713941 0.654879
vt 0.748332 0.654879
vt 0.748332 0.764246
vt 0.855620 0.286534
vt 0.917018 0.368868
vt 0.915749 0.370351
vt 0.830367 0.309864
vt 0.914811 0.372465
vt 0.812132 0.339010
vt 0.914298 0.376303
vt 0.802478 0.372006
vt 0.914330 0.379528
vt 0.801802 0.379528
vt 0.679551 0.654879
vt 0.679551 0.764246
vt 0.541989 0.764246
vt 0.507599 0.764246
vt 0.507599 0.654879
vt 0.541989 0.654879
vt 0.576380 0.764246
vt 0.576380 0.654879
vt 0.755885 0.654879
vt 0.755885 0.764246
vt 0.500045 0.764246
vt 0.500045 0.654879
vt 0.983050 0.012566
vt 0.982000 0.010919
vt 0.982000 0.008482
vt 0.983050 0.006835
vt 0.993167 0.278776
vt 0.929483 0.371550
vt 0.992027 0.014464
vt 0.988802 0.014509
vt 0.988802 0.004892
vt 0.992027 0.004937
vt 0.984989 0.013827
vt 0.984989 0.005574
vt 0.952703 0.005400
vt 0.956317 0.005845
vt 0.956317 0.089187
vt 0.952703 0.089631
vt 0.971633 0.012189
vt 0.971633 0.082843
vt 0.983355 0.023911
vt 0.983355 0.071120
vt 0.989699 0.039227
vt 0.989699 0.055805
vt 0.136612 0.374878
vt 0.136612 0.518233
vt 0.004881 0.518233
vt 0.004881 0.374878
vt 0.535959 0.004883
vt 0.535959 0.148239
vt 0.406614 0.148239
vt 0.406614 0.004883
vt 0.266915 0.222885
vt 0.266915 0.366243
vt 0.004882 0.366243
vt 0.004882 0.222885
vt 0.357565 0.976885
vt 0.489285 0.976885
vt 0.489285 0.986471
vt 0.357565 0.986471
vt 0.600645 0.958885
vt 0.862704 0.958886
vt 0.862704 0.968474
vt 0.600645 0.968474
vt 0.665304 0.148239
vt 0.671314 0.155709
vt 0.535959 0.155709
vt 0.538310 0.544539
vt 0.800338 0.544526
vt 0.800338 0.646102
vt 0.538310 0.646102
vt 0.485535 0.552885
vt 0.485535 0.694051
vt 0.287719 0.694051
vt 0.287719 0.552885
vt 0.645694 0.772883
vt 0.645694 0.914047
vt 0.468893 0.914047
vt 0.468893 0.772883
vt 0.901251 0.004883
vt 0.901251 0.146048
vt 0.724448 0.146048
vt 0.724448 0.004883
vt 0.491545 0.701521
vt 0.281710 0.701521
vt 0.808153 0.517207
vt 0.984952 0.517207
vt 0.984952 0.601312
vt 0.808153 0.601313
vt 0.711135 0.388881
vt 0.888017 0.388881
vt 0.888017 0.398472
vt 0.711135 0.398472
vt 0.609711 0.416879
vt 0.786498 0.416879
vt 0.786498 0.426465
vt 0.609711 0.426465
vt 0.004879 0.741206
vt 0.181678 0.741206
vt 0.181678 0.825312
vt 0.004879 0.825312
vt 0.332709 0.763586
vt 0.440546 0.763586
vt 0.386627 0.828138
vt 0.468897 0.958886
vt 0.468897 0.968474
vt 0.095561 0.976885
vt 0.095561 0.986471
vt 0.004880 0.112526
vt 0.266908 0.112538
vt 0.266908 0.214102
vt 0.004880 0.214102
vt 0.398650 0.222885
vt 0.398650 0.366243
vt 0.398637 0.374878
vt 0.398637 0.518233
vt 0.004880 0.004886
vt 0.266908 0.004886
vt 0.406578 0.436886
vt 0.538310 0.436886
vt 0.406423 0.544539
vt 0.601903 0.237996
vt 0.535959 0.237996
vt 0.800338 0.436886
vt 0.398641 0.004886
vt 0.398796 0.112538
vt 0.944890 0.004882
vt 0.944890 0.148237
vt 0.914451 0.146045
vt 0.914451 0.004882
vt 0.950899 0.155707
vt 0.920461 0.153514
vt 0.004879 0.660878
vt 0.181678 0.660878
vt 0.808153 0.436879
vt 0.984952 0.436879
vt 0.881508 0.237993
vt 0.869463 0.215578
vt 0.815547 0.315236
vt 0.815546 0.280128
vt 0.749584 0.237993
vt 0.761629 0.215578
vt 0.680193 0.155707
vt 0.710633 0.153514
vt 0.686202 0.148237
vt 0.716641 0.146045
vt 0.686202 0.004882
vt 0.716641 0.004882
vt 0.279906 0.541554
vt 0.279906 0.636903
vt 0.194684 0.636903
vt 0.194684 0.541554
vt 0.004883 0.589228
vt 0.004883 0.526881
vt 0.068381 0.526881
vt 0.068381 0.589228
vt 0.004883 0.651575
vt 0.068381 0.651575
vt 0.400605 0.155709
vt 0.470015 0.237996
vt 0.665305 0.004883
vt 0.194684 0.651575
vt 0.194684 0.526881
vt 0.395135 0.850827
vt 0.395135 0.964651
vt 0.329190 0.964651
vt 0.329190 0.773580
vt 0.321373 0.764887
vt 0.321373 0.955954
vt 0.189486 0.955954
vt 0.189486 0.764887
vt 0.535959 0.429063
vt 0.470015 0.429063
vt 0.940042 0.610885
vt 0.940042 0.801954
vt 0.808154 0.801954
vt 0.808154 0.610885
vt 0.349115 0.186888
vt 0.415038 0.186888
vt 0.422851 0.197407
vt 0.349115 0.197407
vt 0.080988 0.834878
vt 0.154745 0.834878
vt 0.086902 0.973825
vt 0.080988 0.973825
vt 0.477367 0.922887
vt 0.609210 0.922887
vt 0.617022 0.933406
vt 0.469555 0.933406
vt 0.738795 0.154885
vt 0.870704 0.154885
vt 0.878520 0.165409
vt 0.730979 0.165409
vt 0.868731 0.414886
vt 0.934685 0.414887
vt 0.942501 0.425411
vt 0.868731 0.425411
vt 0.964529 0.104795
vt 0.952704 0.104795
vt 0.952704 0.098882
vt 0.964529 0.098882
vt 0.729605 0.810881
vt 0.803363 0.810881
vt 0.735518 0.949830
vt 0.729605 0.949830
vt 0.815852 0.810885
vt 0.963369 0.810885
vt 0.895523 0.949835
vt 0.883697 0.949835
vt 0.612055 0.268882
vt 0.759571 0.268882
vt 0.691727 0.407830
vt 0.679899 0.407830
vt 0.655847 0.810881
vt 0.723691 0.949830
vt 0.964529 0.110708
vt 0.952704 0.110708
vt 0.802775 0.414887
vt 0.794959 0.425411
vt 0.007231 0.834878
vt 0.075074 0.973825
vt 0.283193 0.186888
vt 0.275380 0.197407
vt 0.601903 0.429063
vt 0.461080 0.773580
vt 0.461080 0.964651
s 1
f 13/1/1 27/2/1 23/3/2 5/4/2
f 5/5/3 7/6/3 8/7/3 6/8/3
f 7/6/4 9/9/4 10/10/4 8/7/4
f 9/9/5 11/11/5 12/12/5 10/10/5
f 9/13/6 25/14/6 26/15/7 11/16/7
f 13/17/8 14/18/8 16/19/8 15/20/8
f 15/20/9 16/19/9 18/21/9 17/22/9
f 17/22/10 18/21/10 20/23/10 19/24/10
f 19/24/11 20/23/11 2/25/11 1/26/11
f 5/4/2 23/3/2 24/27/12 7/28/12
f 14/18/13 13/17/13 5/5/13 6/8/13
f 17/29/14 19/30/15 30/31/15 29/32/14
f 13/1/1 15/33/16 28/34/16 27/2/1
f 11/16/7 26/15/7 22/35/17 3/36/17
f 19/30/15 1/37/18 21/38/18 30/31/15
f 16/39/19 14/40/19 6/41/19 8/42/19
f 15/33/16 17/29/14 29/32/14 28/34/16
f 7/28/12 24/27/12 25/14/6 9/13/6
f 11/11/20 3/43/20 4/44/20 12/12/20
f 2/45/19 20/46/19 12/47/19 4/48/19
f 20/46/19 18/49/19 10/50/19 12/47/19
f 18/49/19 16/39/19 8/42/19 10/50/19
f 22/51/21 26/52/21 30/53/21 21/54/21
f 30/53/21 26/52/21 25/55/21 29/56/21
f 25/55/21 24/57/21 28/58/21 29/56/21
f 28/58/21 24/57/21 23/59/21 27/60/21
f 58/61/22 59/62/22 38/63/22 37/64/22
f 72/65/23 73/66/23 36/67/23 35/68/23
f 60/69/24 61/70/24 32/71/24 31/72/24
f 61/73/25 36/74/25 42/75/25 63/76/25
f 59/77/26 34/78/26 40/79/26 62/80/26
f 73/66/23 38/81/23 41/82/27 74/83/27
f 79/84/28 66/85/29 43/86/30 64/87/30
f 44/88/31 45/89/31 47/90/31 46/91/31
f 46/92/22 47/93/22 51/94/22 50/95/22
f 48/96/24 49/97/24 45/98/24 44/99/24
f 47/90/31 45/89/31 52/100/31 53/101/31
f 69/102/32 68/103/32 57/104/33 56/105/33
f 45/106/25 49/107/25 55/108/25 52/109/25
f 51/110/26 47/111/26 53/112/26 54/113/26
f 71/114/34 70/115/34 56/116/35 57/117/35
f 70/118/31 69/119/31 56/120/31
f 38/121/26 59/77/26 62/80/26 41/122/26
f 32/123/25 61/73/25 63/76/25 39/124/25
f 65/125/36 77/126/37 64/127/38 43/128/38
f 35/129/24 36/130/24 61/70/24 60/69/24
f 33/131/22 34/132/22 59/62/22 58/61/22
f 39/133/39 63/134/39 77/126/37 65/125/36
f 41/135/40 62/136/41 79/84/28 67/137/40
f 74/83/27 41/82/27 67/138/42 75/139/27
f 62/136/41 40/140/41 66/85/29 79/84/28
f 63/134/39 42/141/43 81/142/43 77/126/37
f 31/143/31 32/144/31 49/145/31 48/146/31
f 39/147/31 55/148/31 49/145/31 32/144/31
f 53/101/31 52/100/31 69/119/31 70/118/31
f 54/149/44 53/150/44 70/115/34 71/114/34
f 52/151/45 55/152/45 68/103/32 69/102/32
f 65/153/31 68/154/31 55/148/31 39/147/31
f 68/154/31 65/153/31 43/155/31 57/156/31
f 66/157/31 71/158/31 57/156/31 43/155/31
f 71/158/31 66/157/31 40/159/31 54/160/31
f 34/161/31 51/162/31 54/160/31 40/159/31
f 33/163/31 50/164/31 51/162/31 34/161/31
f 44/165/21 46/166/21 50/167/21 48/168/21
f 72/169/21 35/170/21 60/171/21 76/172/21
f 37/173/21 72/169/21 76/172/21 58/174/21
f 42/175/27 74/83/27 75/139/27 81/176/42
f 36/67/23 73/66/23 74/83/27 42/175/27
f 37/177/23 38/81/23 73/66/23 72/65/23
f 50/167/21 33/178/21 58/174/21 76/172/21
f 31/179/21 48/168/21 76/172/21 60/171/21
f 64/180/31 92/181/31 80/182/31 79/183/31
f 79/184/22 80/185/22 83/186/22 67/187/22
f 75/139/27 93/188/23 82/189/23 81/176/42
f 81/190/24 82/191/24 78/192/24 77/193/24
f 92/194/46 78/195/46 84/196/46 94/197/46
f 95/198/47 86/199/47 90/200/47 97/201/47
f 78/202/48 82/203/48 87/204/48 84/205/48
f 83/206/49 80/207/49 85/208/49 86/209/49
f 93/210/50 83/211/50 86/212/50 95/213/50
f 97/214/19 96/215/19 88/216/19 91/217/19
f 94/218/51 84/219/51 88/220/51 96/221/51
f 84/222/52 87/223/52 91/224/52 88/225/52
f 86/226/53 85/227/53 89/228/53 90/229/53
f 85/230/51 94/218/51 96/221/51 89/231/51
f 90/232/19 89/233/19 96/215/19 97/214/19
f 82/234/50 93/210/50 95/213/50 87/235/50
f 87/236/47 95/198/47 97/201/47 91/237/47
f 80/238/46 92/194/46 94/197/46 85/239/46
f 67/138/42 83/240/23 93/188/23 75/139/27
f 77/241/31 78/242/31 92/181/31 64/180/31
f 48/168/21 50/167/21 76/172/21
